<svg xmlns="http://www.w3.org/2000/svg" viewBox="0 0 24 24"><defs><style>.cls-1{fill:#fff;opacity:0;}.cls-2{fill:#D2CFCE;}.cls-3{fill:#C75555;}</style></defs><title>Fashion Accessory</title><g id="Layer_2" data-name="Layer 2"><g id="Layer_33" data-name="Layer 33"><rect class="cls-1" width="24" height="24"/></g><g id="fashion_accessory" data-name="fashion accessory"><path class="cls-2" d="M20.07,20.43H3.93A1.93,1.93,0,0,1,2.07,18l2-7.45A1,1,0,0,1,5,9.83h.88a.24.24,0,0,1,.24.28l-.7,4.22a1.91,1.91,0,0,0,.42,1.56,1.94,1.94,0,0,0,1.47.68h2.85l0,0,1,1.44a1,1,0,0,0,1.6,0l1-1.44,0,0h2.85a1.94,1.94,0,0,0,1.47-.68,1.91,1.91,0,0,0,.42-1.56l-.7-4.22a.24.24,0,0,1,.24-.28H19a1,1,0,0,1,.93.71l2,7.45A1.93,1.93,0,0,1,20.07,20.43Z"/><path class="cls-3" d="M16.68,8.87h-1C14.89,6.29,13.52,4.54,12,4.54S9.11,6.29,8.34,8.87h-1C8.2,5.69,9.95,3.57,12,3.57S15.79,5.69,16.68,8.87Z"/><path class="cls-3" d="M17.6,14.49a1,1,0,0,1-.95,1.12H13.79l0,0-1-1.44a1,1,0,0,0-1.6,0l-1,1.44,0,0H7.35a1,1,0,0,1-.95-1.12l.34-2V12.4L7.15,10a.25.25,0,0,1,.24-.2h9.22a.25.25,0,0,1,.24.2l.4,2.37v.05Z"/><path class="cls-2" d="M12.87,16a.25.25,0,0,1,0,.28l-.66,1a.25.25,0,0,1-.42,0l-.66-1a.25.25,0,0,1,0-.28l.66-1a.25.25,0,0,1,.42,0Z"/></g></g></svg>