<?xml version="1.0" encoding="UTF-8"?>
<svg width="32px" height="32px" viewBox="0 0 24 24" version="1.1" xmlns="http://www.w3.org/2000/svg" xmlns:xlink="http://www.w3.org/1999/xlink">
    <g id="Basket-on-white" stroke="#D2CFCE" stroke-width="0.8" fill="none" fill-rule="">
        <path d="M9.5,16 C10.3284271,16 11,16.6715729 11,17.5 C11,18.3284271 10.3284271,19 9.5,19 C8.67157288,19 8,18.3284271 8,17.5 C8,16.6715729 8.67157288,16 9.5,16 Z M14.5,16 C15.3284271,16 16,16.6715729 16,17.5 C16,18.3284271 15.3284271,19 14.5,19 C13.6715729,19 13,18.3284271 13,17.5 C13,16.6715729 13.6715729,16 14.5,16 Z M9.5,17 C9.22385763,17 9,17.2238576 9,17.5 C9,17.7761424 9.22385763,18 9.5,18 C9.77614237,18 10,17.7761424 10,17.5 C10,17.2238576 9.77614237,17 9.5,17 Z M14.5,17 C14.2238576,17 14,17.2238576 14,17.5 C14,17.7761424 14.2238576,18 14.5,18 C14.7761424,18 15,17.7761424 15,17.5 C15,17.2238576 14.7761424,17 14.5,17 Z M5.25596935,5 C5.87106651,5 6.41853952,5.37464733 6.64601079,5.93616533 L6.69270878,6.06897817 L7.36456696,8.31185099 C7.52347867,8.1891789 7.70975377,8.09659105 7.91697297,8.04478625 C8.03595387,8.01504102 8.1581337,8 8.28077641,8 L8.28077641,8 L15.7192236,8 C16.5476507,8 17.2192236,8.67157288 17.2192236,9.5 C17.2192236,9.62264271 17.2041826,9.74482253 17.1744373,9.86380344 L17.1744373,9.86380344 L16.1744373,13.8638034 C16.0074997,14.5315539 15.4075251,15 14.7192236,15 L14.7192236,15 L9.28077641,15 C8.59247494,15 7.99250028,14.5315539 7.82556266,13.8638034 L7.82556266,13.8638034 L7.013,10.617 L5.73488249,6.35632606 C5.67936585,6.17127057 5.5233886,6.03725005 5.33734024,6.00663641 L5.25596935,6 L4,6 C3.72385763,6 3.5,5.77614237 3.5,5.5 C3.5,5.25454011 3.67687516,5.05039163 3.91012437,5.00805567 L4,5 L5.25596935,5 Z M15.7192236,9 L8.28077641,9 C8.2398955,9 8.1991689,9.00501367 8.15950859,9.01492875 C7.89161114,9.08190311 7.72873079,9.35337036 7.79570516,9.62126781 L7.79570516,9.62126781 L8.79570516,13.6212678 C8.85135103,13.8438513 9.05134259,14 9.28077641,14 L9.28077641,14 L14.7192236,14 C14.9486574,14 15.148649,13.8438513 15.2042948,13.6212678 L15.2042948,13.6212678 L16.2042948,9.62126781 C16.2142099,9.58160751 16.2192236,9.5408809 16.2192236,9.5 C16.2192236,9.22385763 15.995366,9 15.7192236,9 L15.7192236,9 Z" id="Basket" fill="#000000" fill-rule="nonzero"></path>
    </g>
</svg>